<?xml version="1.0" standalone="no"?>
<!DOCTYPE svg PUBLIC "-//W3C//DTD SVG 20010904//EN"
 "http://www.w3.org/TR/2001/REC-SVG-20010904/DTD/svg10.dtd">
<svg version="1.0" xmlns="http://www.w3.org/2000/svg"
 width="128.000000pt" height="128.000000pt" viewBox="0 0 128.000000 128.000000"
 preserveAspectRatio="xMidYMid meet">

<g transform="translate(0.000000,128.000000) scale(0.100000,-0.100000)"
fill="#000000" stroke="none">
<path d="M0 640 l0 -640 640 0 640 0 0 640 0 640 -640 0 -640 0 0 -640z m175
115 c16 -15 25 -36 25 -55 l0 -30 -81 0 c-79 0 -80 0 -73 -22 19 -64 78 -78
116 -28 25 34 38 38 38 12 0 -23 -37 -57 -69 -65 -31 -8 -86 15 -100 41 -24
46 -9 130 28 159 28 22 89 16 116 -12z m90 -15 l28 -40 29 40 c16 22 36 40 44
40 20 0 18 -6 -21 -57 l-35 -45 32 -42 c17 -22 36 -47 41 -53 7 -9 4 -13 -9
-13 -11 0 -32 19 -48 42 l-29 41 -37 -43 c-50 -59 -72 -49 -26 12 20 26 36 51
36 56 0 5 -13 26 -30 47 -33 42 -37 55 -16 55 7 0 26 -18 41 -40z m155 24 c0
-14 2 -14 22 0 34 24 90 20 117 -8 42 -44 36 -152 -10 -177 -24 -12 -66 -15
-97 -5 -20 7 -22 4 -22 -33 0 -30 -4 -41 -15 -41 -13 0 -15 22 -15 140 0 87 4
140 10 140 6 0 10 -7 10 -16z m220 6 c0 -6 9 -6 26 0 35 14 44 13 44 -5 0 -8
-8 -15 -17 -15 -38 0 -53 -30 -53 -107 0 -58 -3 -73 -15 -73 -12 0 -15 18 -15
105 0 87 3 105 15 105 8 0 15 -4 15 -10z m219 -7 c12 -10 24 -35 28 -55 l6
-38 -82 0 c-89 0 -97 -7 -60 -54 29 -37 72 -35 101 4 12 17 25 30 30 30 15 0
8 -27 -13 -54 -17 -22 -28 -26 -69 -26 -41 0 -52 4 -70 28 -31 38 -25 136 9
163 29 24 92 25 120 2z m193 0 c17 -15 25 -53 12 -53 -3 0 -15 11 -26 25 -22
28 -54 32 -83 11 -28 -20 -12 -41 42 -56 79 -22 100 -51 67 -98 -32 -46 -154
-20 -154 33 0 21 9 19 36 -10 26 -28 74 -34 94 -10 20 24 5 42 -57 62 -54 18
-58 22 -61 53 -3 24 2 38 14 47 25 18 94 16 116 -4z m188 -3 c24 -24 26 -50 5
-50 -8 0 -15 7 -15 15 0 25 -45 40 -76 26 -41 -19 -26 -43 41 -66 58 -19 60
-21 63 -57 3 -30 -1 -39 -19 -49 -55 -29 -139 -3 -139 43 0 24 8 23 36 -7 26
-28 74 -34 94 -10 19 23 5 43 -42 55 -61 16 -88 36 -88 65 0 51 99 76 140 35z"/>
<path d="M82 753 c-7 -3 -19 -18 -27 -34 l-16 -29 70 0 c65 0 69 1 64 20 -10
37 -55 58 -91 43z"/>
<path d="M452 740 c-27 -25 -30 -94 -6 -128 19 -28 67 -29 94 -2 29 29 27 94
-5 125 -29 30 -54 32 -83 5z"/>
<path d="M763 745 c-11 -8 -23 -24 -26 -35 -5 -19 -1 -20 64 -20 l70 0 -15 29
c-22 42 -56 52 -93 26z"/>
</g>
</svg>
